<?xml version="1.0" standalone="no"?><!DOCTYPE svg PUBLIC "-//W3C//DTD SVG 1.1//EN" "http://www.w3.org/Graphics/SVG/1.1/DTD/svg11.dtd"><svg t="1597908431035" class="icon" viewBox="0 0 1024 1024" version="1.1" xmlns="http://www.w3.org/2000/svg" p-id="2262" xmlns:xlink="http://www.w3.org/1999/xlink" width="200" height="200"><defs><style type="text/css"></style></defs><path d="M626.3 225.3c46.3-54 42.1-133.8 42.1-133.8s-79.1 7.3-125.4 61.4c-46.3 53.9-42.1 133.9-42.1 133.9s79-7.5 125.4-61.5z m100.4 311.4c0-68.1 37.6-127.5 92.9-158.3-38.7-55.9-106.8-86.8-154.1-86.8-56.9 0-135.2 40.2-158 40.2-24.2 0-74.8-36.3-142.2-37.3-55.7-0.8-149.3 31.5-182 127.6-32.7 96-31.2 234.8 37.3 363.8C275.5 889.2 324.1 931 371 931c47 0 102.4-35.9 146.6-35.9 44.1 0 85.4 35.9 130.9 35.9s92.4-37.3 126.6-88.9c34.1-51.7 65.5-131.9 65.5-131.9s0.2-2.1 0.6-5.2c-67-26.2-114.5-91.6-114.5-168.3z" p-id="2263" fill="#707070"></path></svg>