<?xml version="1.0" standalone="no"?><!DOCTYPE svg PUBLIC "-//W3C//DTD SVG 1.1//EN" "http://www.w3.org/Graphics/SVG/1.1/DTD/svg11.dtd"><svg t="1591697565105" class="icon" viewBox="0 0 1024 1024" version="1.1" xmlns="http://www.w3.org/2000/svg" p-id="2896" xmlns:xlink="http://www.w3.org/1999/xlink" width="200" height="200"><defs><style type="text/css"></style></defs><path d="M416.768607 831.549632h-128.286591a223.498017 223.498017 0 0 1-158.678882-65.535934 221.982498 221.982498 0 0 1-65.699774-158.269282c0-59.71962 23.306217-115.957644 65.699774-158.207842a223.498017 223.498017 0 0 1 158.678882-65.535934 32.030688 32.030688 0 0 0 32.092127-31.989728v-0.4096a285.286115 285.286115 0 0 1 84.520876-203.366196 287.272673 287.272673 0 0 1 203.980596-84.295596c46.284754 0 90.521509 10.567669 131.379069 31.477729a289.70979 289.70979 0 0 1 99.90134 84.234155 32.071648 32.071648 0 0 0 51.425228-38.277081 355.675804 355.675804 0 0 0-121.999238-102.911897A355.901084 355.901084 0 0 0 609.075615 0.001024a351.293089 351.293089 0 0 0-249.302791 102.973337 350.617249 350.617249 0 0 0-101.990298 218.685221 287.334113 287.334113 0 0 0-173.240147 82.636718A285.552354 285.552354 0 0 0 0.001024 607.744416a285.286115 285.286115 0 0 0 84.520875 203.386677 286.781153 286.781153 0 0 0 203.980596 84.295596h128.204672a32.030688 32.030688 0 1 0 0.04096-63.877057z" fill="#515151" p-id="2897"></path><path d="M696.320328 843.53042V803.84022h-40.959959c-22.527977 0.04096-40.878039-17.694702-40.959959-39.66972 0.08192-21.954538 18.431982-39.73116 40.959959-39.649241h40.959959v-105.676694c-99.225501-21.913578-161.320799-117.596042-138.710902-213.729066s121.405319-156.303204 220.61034-134.389626c99.245981 21.913578 161.341279 117.596042 138.731381 213.729067-15.749104 66.908093-69.67289 119.132041-138.731381 134.369145V983.040041h-81.919918v-60.1497h-49.377231c-22.568937 0.06144-40.918999-17.694702-40.959959-39.66972 0.04096-21.975018 18.391022-39.73116 40.959959-39.690201H696.320328z m141.516658-396.308083c0-54.538185-46.284754-98.713501-103.341976-98.713502-57.077703 0-103.341977 44.175316-103.341977 98.713502 0 54.517705 46.284754 98.713501 103.341977 98.713501 57.077703 0 103.321497-44.195796 103.321496-98.713501z" fill="#515151" p-id="2898"></path></svg>