<?xml version="1.0" standalone="no"?><!DOCTYPE svg PUBLIC "-//W3C//DTD SVG 1.1//EN" "http://www.w3.org/Graphics/SVG/1.1/DTD/svg11.dtd"><svg t="1592214032064" class="icon" viewBox="0 0 1025 1024" version="1.1" xmlns="http://www.w3.org/2000/svg" p-id="2281" xmlns:xlink="http://www.w3.org/1999/xlink" width="200.1953125" height="200"><defs><style type="text/css"></style></defs><path d="M959.784645 101.873951H789.845038V43.687758a43.751911 43.751911 0 0 0-87.503821 0v58.057888H321.661102V43.687758a43.751911 43.751911 0 0 0-87.503822 0v58.057888H64.153521a64.152362 64.152362 0 0 0-64.152362 64.152362v793.885478a64.152362 64.152362 0 0 0 64.152362 64.152362h895.631124a64.152362 64.152362 0 0 0 64.152362-64.152362V165.96216a64.152362 64.152362 0 0 0-64.152362-64.088209zM277.909191 270.787119a43.816063 43.816063 0 0 0 43.751911-43.75191V189.377772h380.615963v37.657437a43.751911 43.751911 0 0 0 87.503821 0V189.377772h146.523995v746.990102H87.569133V189.377772h146.588147v37.657437a43.816063 43.816063 0 0 0 43.751911 43.75191z m9.173788 468.312242h491.08633a42.340559 42.340559 0 0 0 42.212254-42.276406v-2.630247a42.340559 42.340559 0 0 0-42.212254-42.276407H287.082979a42.340559 42.340559 0 0 0-42.212255 42.276407v2.501942a42.340559 42.340559 0 0 0 42.212255 42.276406z m224.91818-183.34745h264.628493a43.751911 43.751911 0 1 0 0-87.503822H512.001159a43.751911 43.751911 0 1 0 0 87.503822z" fill="#707070" p-id="2282"></path></svg>