<?xml version="1.0" standalone="no"?><!DOCTYPE svg PUBLIC "-//W3C//DTD SVG 1.1//EN" "http://www.w3.org/Graphics/SVG/1.1/DTD/svg11.dtd"><svg t="1595831465817" class="icon" viewBox="0 0 1024 1024" version="1.1" xmlns="http://www.w3.org/2000/svg" p-id="4002" xmlns:xlink="http://www.w3.org/1999/xlink" width="200" height="200"><defs><style type="text/css"></style></defs><path d="M998.305645 283.546628l-199.804878 199.804878c-17.629842 17.629842-47.012912 17.629842-64.642755 0l-199.804878-199.804878c-17.629842-17.629842-17.629842-47.012912 0-64.642754l199.804878-205.681492c17.629842-17.629842 47.012912-17.629842 64.642755 0l199.804878 199.804878c17.629842 17.629842 17.629842 52.889527 0 70.519368zM398.891011 1024h-329.090388c-35.259684 0-58.766141-29.38307-58.76614-58.766141v-329.090387c0-35.259684 29.38307-58.766141 58.76614-58.766141h329.090388c35.259684 0 58.766141 29.38307 58.76614 58.766141v329.090387c0 29.38307-23.506456 58.766141-58.76614 58.766141zM398.891011 483.351506h-329.090388c-35.259684 0-58.766141-29.38307-58.76614-58.76614V89.618364c0-35.259684 29.38307-58.766141 58.76614-58.76614h329.090388c35.259684 0 58.766141 29.38307 58.76614 58.76614v329.090388c0 35.259684-23.506456 64.642755-58.76614 64.642754zM610.449117 571.500717h329.090387c35.259684 0 58.766141 29.38307 58.766141 58.766141v329.090387c0 35.259684-29.38307 58.766141-58.766141 58.766141h-329.090387c-35.259684 0-58.766141-29.38307-58.766141-58.766141v-329.090387c0-29.38307 23.506456-58.766141 58.766141-58.766141z" fill="#707070" p-id="4003"></path></svg>