<?xml version="1.0" standalone="no"?><!DOCTYPE svg PUBLIC "-//W3C//DTD SVG 1.1//EN" "http://www.w3.org/Graphics/SVG/1.1/DTD/svg11.dtd"><svg t="1583480716465" class="icon" viewBox="0 0 1024 1024" version="1.1" xmlns="http://www.w3.org/2000/svg" p-id="3503" xmlns:xlink="http://www.w3.org/1999/xlink" width="200" height="200"><defs><style type="text/css"></style></defs><path d="M330.752 333.824m-51.712 0a51.712 51.712 0 1 0 103.424 0 51.712 51.712 0 1 0-103.424 0Z" p-id="3504"></path><path d="M836.096 603.648c0 0.512-0.512 1.536-1.024 2.048s-1.024 2.56-1.536 3.584-1.536 2.56-2.048 3.584c-1.024 2.048-2.56 3.584-4.096 5.632-1.024 1.536-2.048 2.56-3.584 3.584L619.52 823.808c-5.12 5.12-11.264 9.216-17.92 11.776-14.848 6.144-31.744 5.12-45.568-2.048-4.608-2.56-9.216-5.632-13.312-9.728l-174.08-172.032-174.08-172.032c-3.072-3.072-5.12-6.144-6.656-9.728-0.512-0.512-0.512-1.024-0.512-1.536l-1.536-4.608c0-0.512 0-1.024-0.512-1.536-1.024-2.56-1.024-4.608-1.024-7.168V238.08C184.32 208.384 208.896 184.32 238.592 184.32H450.56c6.656 0 12.8 1.536 18.432 5.12 2.56 1.536 4.608 3.072 6.656 5.12l348.672 351.744c2.048 2.048 3.584 4.096 5.12 6.144 3.072 4.096 5.632 9.216 7.168 13.824 1.536 4.096 2.56 8.192 2.56 12.288v2.56c0.512 8.192-0.512 15.872-3.072 22.528zM512 0C229.376 0 0 229.376 0 512s229.376 512 512 512 512-229.376 512-512S794.624 0 512 0z" p-id="3505"></path></svg>