<?xml version="1.0" standalone="no"?><!DOCTYPE svg PUBLIC "-//W3C//DTD SVG 1.1//EN" "http://www.w3.org/Graphics/SVG/1.1/DTD/svg11.dtd"><svg t="1599548061596" class="icon" viewBox="0 0 1024 1024" version="1.1" xmlns="http://www.w3.org/2000/svg" p-id="3801" xmlns:xlink="http://www.w3.org/1999/xlink" width="200" height="200"><defs><style type="text/css"></style></defs><path d="M25.6 512.2304C25.6 294.7584 168.3968 110.6944 365.312 48.4608c-11.3408 24.2944-12.416 51.328-4.5568 76.7232C342.016 117.76 329.1136 101.0688 316.032 88.064c5.6576 42.2912 12.9792 93.056 58.0608 117.1712 1.024 0.5632 2.1248 1.1008 3.3536 1.664-22.912 21.4272-58.5216 50.7392-63.1808 69.9392-6.2976 26.5216 14.0032 64.64-13.9008 89.984-27.9296 25.4208-145.9968 175.5136-145.9968 175.5136s-5.0944 18.4576 8.8064 19.5584c0.3072 0.0256 0.6656 0.0512 1.0496 0.0512 5.6576 0 17.5872-3.1488 31.0528-6.3488 13.44-3.1488 28.3648-6.3488 39.7312-6.3488 9.6512 0 16.7424 2.304 18.2528 8.8576 1.7664 7.9872-46.848 44.2368-51.9424 56.96-5.0944 12.7232 7.6032 57.7024 15.2064 66.8928 7.6032 9.2672 35.6096 17.3312 35.6096 17.3312l-11.4944-29.952c0 0 20.3264 19.584 57.1392 20.7872 36.8384 1.1008 142.208 3.4304 157.5168 8.064 13.2352 3.9424-0.4096 33.3312-20.0704 33.3312-2.944 0-6.016-0.6656-9.1392-2.1504-22.5536-10.8544-97.28-32.7168-129.7408-32.7168-2.2528 0-4.3264 0.1024-6.144 0.3328-27.9296 3.5328-41.8304 26.7008-63.4368 54.272-6.9632 8.9088-19.0976 39.424-19.0976 39.424l43.9552-19.1232c0 0-9.1904 14.1056-10.4704 30.336-1.3056 16.1536 5.9392 33.664 5.9392 33.664l35.5328-41.5488c0 0-4.352 21.5296 5.0944 44.9792 5.4784 13.7216 20.3264 24.2176 20.3264 24.2176s-7.5008-23.4752 7.3216-38.6816c5.76 22.7328 16.5888 27.648 24.3968 31.7184 9.472 4.992 17.8176 6.9632 17.8176 6.9632s-15.3088-19.3024 0.8448-28.4672c4.352-2.5088 36.352-20.4032 72.064-40.832-10.5728 28.2112-16.2304 56.6784-11.8784 77.9264 12.4416 60.4928 37.2992 66.8928 37.2992 66.8928 7.04-15.3856 20.1216-27.8272 28.4672-41.1904-6.4512 34.2272-5.3504 68.1728 2.6368 99.8144C230.0416 984.2432 25.6 772.4032 25.6 512.2304zM384.3072 352.0768c2.2784-6.8608 9.0112-12.3392 17.408-12.3392 4.6592 0 9.8048 1.6896 14.9504 5.76 14.464 11.4176 44.4416 17.6128 43.52 22.7328-1.1264 5.1968-61.0304 14.9248-66.1504 23.1936-4.0704 6.4768-17.0752 15.232-22.528 15.232-1.5104 0-2.432-0.6656-2.432-2.2272 0-7.2448 13.44-18.56 12.4416-27.9296C380.5184 367.2064 381.44 360.9856 384.3072 352.0768zM389.8624 46.976c-0.1024-0.384-0.7168-2.2016-1.5616-4.6592 1.5616-0.4096 3.1488-0.8192 4.7104-1.2032-0.4096 4.4544-0.6144 8.9856-0.4608 13.6448C391.0912 51.6096 390.2464 48.9216 389.8624 46.976zM536.064 835.4048c-33.4848 21.0688-55.552 27.3664-71.5264 63.6416-8.5248-5.9392-16.128-19.3792-18.176-42.3936-2.6112-27.3664 4.736-52.864 15.3088-74.3168 33.9456-19.5584 67.4304-39.2448 80.7936-48.4096 30.5152-20.6848 27.9296-49.536 21.6064-79.5904-6.4-30.0544-59.5456-89.0624-12.6976-131.6352 81.9968-74.496 68.5568-180.0448 52.0448-205.4912-16.512-25.3184-47.872-67.072-55.8336-79.5904-37.0176-58.3424-70.4512-75.008-95.5904-75.008-24.3712 0-40.9344 15.6672-45.312 24.1664-1.664 3.2256-5.1968 7.3216-10.0096 12.16-33.2032-6.2208-44.6976-63.36-44.6976-63.36 15.9744 6.5536 36.864 13.312 54.1696 13.312 0.7936 0 1.5616-0.0256 2.304-0.0512-14.3872-25.6-21.504-42.6752-16.7936-72.2688 11.4176 12.8 27.3664 18.6624 43.0336 26.0608-5.376-28.3648-10.8544-47.0272-6.3744-69.0944C455.552 28.8 483.4048 25.856 512 25.856c268.6208 0 486.4 217.7792 486.4 486.4 0 265.3696-212.608 480.6912-476.7232 485.9136C505.2416 938.9312 517.76 895.744 536.064 835.4048zM654.336 126.1056c1.8944-0.2048 3.7376-0.2816 5.504-0.2816 60.0576 0 54.016 101.3248 71.936 161.8688 9.472 32.0768 38.6816 53.7088 38.6816 53.7088S757.76 295.7824 757.76 286.0288c0-48.512 8.2432-71.6032 2.5856-118.3744-5.76-46.7456-37.4784-77.9264-76.2368-85.9904-5.2224-1.0752-10.4704-1.6128-15.616-1.6128-32.9216 0-62.4384 20.864-66.2784 44.3648-4.6336 28.288 12.16 48.9728 12.16 48.9728s-3.9936-6.6048-1.3056-16.6912C618.7008 134.8352 632.1664 128.2304 654.336 126.1056z" p-id="3802" fill="#707070"></path></svg>