<?xml version="1.0" standalone="no"?><!DOCTYPE svg PUBLIC "-//W3C//DTD SVG 1.1//EN" "http://www.w3.org/Graphics/SVG/1.1/DTD/svg11.dtd"><svg t="1584324107126" class="icon" viewBox="0 0 1024 1024" version="1.1" xmlns="http://www.w3.org/2000/svg" p-id="4217" xmlns:xlink="http://www.w3.org/1999/xlink" width="200" height="200"><defs><style type="text/css"></style></defs><path d="M629.76 34.56l220.16 128c79.36 46.08 128 130.56 128 221.44v254.72c0 90.88-48.64 175.36-128 221.44l-220.16 128c-79.36 46.08-176.64 46.08-256 0L153.6 860.16C74.24 814.08 25.6 729.6 25.6 638.72V384c0-90.88 48.64-175.36 128-221.44l220.16-128c79.36-46.08 177.92-46.08 256 0z" fill="#0080FF" p-id="4218"></path><path d="M697.6 253.44c42.24 19.2 67.84 44.8 67.84 69.12 0 23.04-25.6 48.64-67.84 69.12-58.88 25.6-122.88 37.12-186.88 35.84C364.8 426.24 256 371.2 256 322.56S364.8 217.6 510.72 217.6c64-1.28 128 11.52 186.88 35.84z m-305.92 98.56c20.48 0 37.12-14.08 37.12-30.72 0-16.64-16.64-30.72-37.12-30.72s-37.12 14.08-37.12 30.72c0 17.92 16.64 30.72 37.12 30.72z m122.88 0c20.48 0 37.12-14.08 37.12-30.72 0-16.64-16.64-30.72-37.12-30.72s-37.12 14.08-37.12 30.72c0 17.92 16.64 30.72 37.12 30.72z m122.88 0c20.48 0 37.12-14.08 37.12-30.72 0-16.64-16.64-30.72-37.12-30.72-20.48 0-37.12 14.08-37.12 30.72 1.28 17.92 17.92 30.72 37.12 30.72zM768 698.88v5.12c-6.4 48.64-112.64 102.4-256 102.4s-250.88-52.48-256-101.12v-111.36c74.24 51.2 163.84 76.8 253.44 71.68 70.4 1.28 139.52-12.8 203.52-40.96 19.2-8.96 38.4-20.48 55.04-34.56v108.8z m-1.28-190.72v-2.56 5.12c-6.4 48.64-112.64 102.4-256 102.4s-250.88-52.48-256-101.12v-111.36c74.24 51.2 163.84 76.8 253.44 71.68 70.4 1.28 139.52-12.8 203.52-40.96 19.2-8.96 38.4-20.48 55.04-34.56v111.36z" fill="#FFFFFF" p-id="4219"></path></svg>