<?xml version="1.0" standalone="no"?><!DOCTYPE svg PUBLIC "-//W3C//DTD SVG 1.1//EN" "http://www.w3.org/Graphics/SVG/1.1/DTD/svg11.dtd"><svg t="1583122562598" class="icon" viewBox="0 0 1024 1024" version="1.1" xmlns="http://www.w3.org/2000/svg" p-id="5594" xmlns:xlink="http://www.w3.org/1999/xlink" width="200" height="200"><defs><style type="text/css"></style></defs><path d="M889.6 175.264c0-74.816-171.328-135.872-382.016-135.872S125.568 100.448 125.568 175.264v47.264c0 74.816 171.328 135.872 382.016 135.872S889.6 297.344 889.6 222.528V175.264zM125.536 332.8c0 59.072 171.328 106.336 382.016 106.336s382.016-47.264 382.016-106.336v96.48c0 74.816-171.328 135.872-382.016 135.872S125.536 504.096 125.536 429.28V332.8z m0 206.784c0 59.072 171.328 106.336 382.016 106.336s382.016-47.264 382.016-106.336v96.48c0 74.816-171.328 135.872-382.016 135.872S125.536 712.864 125.536 638.016v-98.464z m0 208.736c0 59.072 171.328 106.336 382.016 106.336s382.016-47.264 382.016-106.336V844.8c0 74.816-171.328 135.872-382.016 135.872S125.536 919.616 125.536 844.8v-96.48z" fill="#515151" p-id="5595"></path></svg>