<?xml version="1.0" standalone="no"?><!DOCTYPE svg PUBLIC "-//W3C//DTD SVG 1.1//EN" "http://www.w3.org/Graphics/SVG/1.1/DTD/svg11.dtd"><svg t="1594978330993" class="icon" viewBox="0 0 1024 1024" version="1.1" xmlns="http://www.w3.org/2000/svg" p-id="4588" xmlns:xlink="http://www.w3.org/1999/xlink" width="200" height="200"><defs><style type="text/css"></style></defs><path d="M585.728 85.333333c4.266667 0 8.789333 0.256 13.226667 0.256L605.354667 85.333333v0.426667c71.68 2.474667 140.544 20.48 194.901333 63.317333 59.306667 46.762667 99.328 122.026667 107.52 230.741334 8.533333 115.2-13.738667 201.898667-38.570667 259.925333a340.992 340.992 0 0 1-39.424 70.570667c10.752 5.888 19.968 10.666667 40.106667 22.357333 15.018667 8.704 29.866667 17.664 41.642667 25.685333 5.973333 4.010667 11.093333 7.68 15.36 11.52a45.653333 45.653333 0 0 1 6.144 6.314667c2.048 2.56 4.864 5.546667 5.461333 12.8 1.28 19.626667-4.266667 49.749333-9.386667 79.274667-5.12 29.354667-10.581333 55.466667-10.581333 55.466666l-3.072 14.933334h-793.6L85.333333 853.248l1.536-12.544c1.024-8.789333 4.010667-9.813333 5.546667-11.349333 1.365333-1.450667 2.56-2.389333 3.669333-3.413334a527.189333 527.189333 0 0 1 32.085334-20.309333c19.456-11.349333 45.226667-25.770667 71.168-40.106667 45.226667-24.832 82.005333-44.373333 97.024-52.394666a379.989333 379.989333 0 0 1-36.352-95.488c-5.802667 0-6.4 1.109333-14.421334-0.512a129.194667 129.194667 0 0 1-66.048-36.778667c-25.6-25.941333-34.389333-62.208-30.037333-95.658667a104.96 104.96 0 0 1 43.690667-71.68c-16.213333-67.242667-8.874667-112.981333 8.021333-140.117333a83.797333 83.797333 0 0 1 36.608-33.706667c8.96-38.741333 35.072-76.8 86.869333-104.192C381.44 104.96 465.408 86.016 585.728 85.333333z m13.141333 37.376c-88.917333 1.621333-144.896 34.816-180.053333 68.096-19.626667 18.688-32 36.352-39.509333 49.066667 7.338667 11.690667 14.762667 29.952 10.24 52.992-4.266667 20.906667-15.786667 41.984-23.722667 63.232-8.021333 21.333333-11.605333 41.045333-6.4 54.869333 9.898667 26.709333 10.837333 44.8 10.837333 44.8l0.341334 11.946667-78.336 37.034667-0.426667-29.525334s-1.365333-23.637333-10.24-37.973333c-4.266667-7.168-8.789333-11.178667-16.298667-12.8-7.424-1.536-20.650667-0.426667-42.24 11.093333l-0.853333 0.256c-18.090667 8.704-30.72 29.184-33.877333 53.333334-3.072 24.064 4.010667 49.834667 19.882666 65.877333 16.981333 17.066667 33.28 23.381333 45.568 25.770667 12.202667 2.474667 18.432 1.109333 18.432 1.109333l6.144-0.938667a78.336 78.336 0 0 0 15.530667-21.589333l35.072 16.64c-9.813333 18.517333-20.394667 29.866667-30.037333 36.949333 5.546667 23.04 18.005333 66.986667 38.656 98.56l2.56 4.096c1.877333 3.242667 7.850667 12.629333 24.576 25.088 18.346667 13.738667 47.445333 27.904 92.672 30.464 0.938667-1.621333 1.706667-3.328 2.816-4.778666a54.869333 54.869333 0 0 1 27.904-18.432 228.864 228.864 0 0 1-53.76-37.717334c-37.290667-37.546667-44.373333-84.138667-44.373334-84.138666l38.826667-5.546667s6.229333 36.352 34.133333 64.170667c26.538667 26.794667 109.056 68.437333 201.216 68.437333 88.576 0 127.573333-58.282667 127.573334-58.282667l1.28 0.853334c8.533333-10.666667 24.064-33.024 39.850666-69.888 20.309333-47.36 39.082667-116.48 37.376-207.786667a37.290667 37.290667 0 0 1-6.229333 3.584 66.901333 66.901333 0 0 1-26.709333 5.034667 218.112 218.112 0 0 1-61.013334-8.106667l10.837334-35.669333c16.469333 4.437333 36.010667 6.997333 48.810666 6.656a1914.197333 1914.197333 0 0 0-12.373333-20.992c-9.898667-16.725333-19.626667-32.768-19.626667-32.768l33.962667-18.602667s9.813333 16.213333 19.797333 33.109333l9.045334 15.445334a408.405333 408.405333 0 0 0-5.376-34.901334l-0.682667 0.170667c-7.850667-29.696-27.989333-37.973333-50.602667-41.898667-22.698667-3.925333-44.117333 0-44.117333 0l-7.68-36.437333s15.445333-3.072 36.352-2.304c7.082667 0.170667 14.677333 0.853333 22.442667 2.218667 6.826667 1.194667 14.250667 3.157333 21.504 5.888a221.013333 221.013333 0 0 0-63.402667-80.810667c-47.189333-37.290667-109.056-53.418667-176.298667-54.954667z m-66.56 125.866667c11.690667-0.085333 24.405333 1.109333 38.314667 4.266667l-8.874667 36.010666c-44.970667-9.813333-65.024 1.706667-77.824 14.336-12.8 12.629333-16.128 27.136-16.128 27.136l-38.4-7.68s5.290667-24.32 26.282667-45.141333c15.616-15.530667 41.386667-28.501333 76.544-28.928z m71.936 71.68s5.888 15.957333 13.312 34.133333c7.424 18.090667 17.066667 39.68 21.333334 46.08 5.546667 8.96 6.826667 22.869333 0.170666 32.341334a39.68 39.68 0 0 1-26.624 15.189333c-20.053333 3.84-44.629333 0.170667-73.642666-11.690667l15.616-34.133333c22.016 9.130667 38.4 9.813333 46.762666 8.789333a429.738667 429.738667 0 0 1-20.224-43.349333c-7.68-18.688-13.653333-34.986667-13.653333-34.986667l36.949333-12.288z m118.613334 24.234667s1.792 54.613333 52.394666 98.133333c27.221333 23.381333 42.922667 37.802667 51.2 54.272a37.546667 37.546667 0 0 1 2.730667 27.477333 45.568 45.568 0 0 1-14.762667 20.053334c-14.08 11.946667-34.986667 20.48-59.136 28.416-24.064 7.850667-49.749333 13.909333-72.106666 13.397333a45.994667 45.994667 0 0 1-31.658667-12.032 36.864 36.864 0 0 1-10.410667-24.490667 57.173333 57.173333 0 0 1 4.949334-26.197333l36.181333 14.08s-2.133333 6.741333-1.962667 10.24l0.085334 0.938667c-0.512-0.341333-0.853333 0.170667 3.925333 0.341333 12.970667 0.341333 36.949333-4.352 58.197333-11.349333 21.248-6.997333 41.472-17.322667 45.738667-21.077334 2.986667-2.56 3.242667-3.413333 3.242667-3.072l-0.597334-0.853333c-2.56-5.290667-15.701333-20.224-41.898666-42.666667-62.72-53.76-65.194667-124.501333-65.194667-124.501333l39.168-1.109333zM240.554667 460.373333l24.32 29.013334s-17.664 11.605333-12.458667 37.717333l-38.570667 6.826667c-8.96-45.226667 26.709333-73.557333 26.709334-73.557334zM598.016 571.733333c55.296 42.496 121.941333 33.194667 121.941333 33.194667l5.973334 36.693333s-83.114667 12.288-152.490667-41.045333l24.661333-28.842667z m208.213333 2.133334l29.354667 24.490666c-36.608 39.509333-91.221333 43.349333-91.221333 43.349334l-3.669334-36.949334s41.216-4.693333 65.536-30.890666z m-221.184 62.890666c3.413333 11.605333 10.24 17.664 22.186667 22.784 11.946667 5.12 28.501333 7.594667 45.226667 7.936 33.536 0.597333 65.877333-6.656 65.877333-6.656l9.216 36.096s-36.010667 8.362667-75.946667 7.68a163.669333 163.669333 0 0 1-60.501333-11.264 75.093333 75.093333 0 0 1-43.861333-46.592l37.802666-9.984zM770.730667 772.266667a40.789333 40.789333 0 0 0-6.229334 0.597333h-0.085333s-6.570667 2.133333-13.909333 5.546667a507.306667 507.306667 0 0 0-73.984 44.8l-5.376 4.181333h-30.890667l-76.8-33.109333h-0.341333c-19.2-8.96-44.544-14.336-58.538667-12.117334-7.082667 1.109333-10.410667 3.157333-12.8 6.058667-2.133333 2.901333-4.437333 8.533333-2.986667 20.650667l0.256 1.194666-0.085333 1.28c-0.597333 35.925333-0.341333 62.805333 3.413333 76.8 1.706667 6.997333 3.925333 9.898667 5.376 11.093334 1.450667 1.28 3.157333 2.304 9.642667 2.304 23.210667 0 56.490667-8.533333 82.773333-17.408a536.746667 536.746667 0 0 0 45.909334-17.92l3.925333-1.706667h66.474667l3.072 0.853333s12.885333 4.096 30.549333 6.229334c17.578667 2.048 38.741333 1.365333 52.394667-5.12 0.853333-0.426667 2.816-2.048 5.034666-6.912a75.690667 75.690667 0 0 0 4.778667-20.650667c1.877333-16.469333 0.426667-35.84-0.853333-46.506667-1.109333-9.045333-5.12-12.970667-12.117334-16.384a41.472 41.472 0 0 0-18.602666-3.754666z m-122.88 17.664l1.024 0.341333h9.386666l0.170667-0.170667-10.496-0.170666z m-243.114667 8.533333c15.274667 12.629333 31.573333 23.893333 44.970667 32.512v-20.224l0.170666 2.389333-0.256-5.376a258.901333 258.901333 0 0 1-44.885333-9.386666z" p-id="4589" fill="#707070"></path></svg>