<?xml version="1.0" standalone="no"?><!DOCTYPE svg PUBLIC "-//W3C//DTD SVG 1.1//EN" "http://www.w3.org/Graphics/SVG/1.1/DTD/svg11.dtd"><svg t="1584324210701" class="icon" viewBox="0 0 1024 1024" version="1.1" xmlns="http://www.w3.org/2000/svg" p-id="5753" xmlns:xlink="http://www.w3.org/1999/xlink" width="200" height="200"><defs><style type="text/css"></style></defs><path d="M509.866667 1006.933333c-12.8 0-27.733333-4.266667-40.533334-10.666666L106.666667 806.4c-27.733333-14.933333-44.8-44.8-44.8-74.666667V142.933333c0-46.933333 38.4-85.333333 85.333333-85.333333H213.333333c46.933333 0 85.333333 38.4 85.333334 85.333333V170.666667h100.266666V142.933333c0-46.933333 38.4-85.333333 85.333334-85.333333H533.333333c46.933333 0 85.333333 38.4 85.333334 85.333333V170.666667h100.266666V142.933333c0-46.933333 38.4-85.333333 85.333334-85.333333h66.133333c46.933333 0 85.333333 38.4 85.333333 85.333333v588.8c0 32-17.066667 61.866667-46.933333 74.666667l-362.666667 189.866667c-10.666667 6.4-23.466667 10.666667-36.266666 10.666666zM147.2 142.933333v588.8l362.666667 189.866667 362.666666-189.866667V142.933333h-66.133333V170.666667c0 46.933333-38.4 85.333333-85.333333 85.333333H618.666667c-46.933333 0-85.333333-38.4-85.333334-85.333333V142.933333h-49.066666V170.666667c0 46.933333-38.4 85.333333-85.333334 85.333333H298.666667c-46.933333 0-85.333333-38.4-85.333334-85.333333V142.933333H147.2z" p-id="5754"></path><path d="M266.666667 695.466667c-23.466667 0-42.666667-19.2-42.666667-42.666667V390.4c0-23.466667 19.2-42.666667 42.666667-42.666667s42.666667 19.2 42.666666 42.666667v262.4c0 23.466667-19.2 42.666667-42.666666 42.666667zM428.8 695.466667c-23.466667 0-42.666667-19.2-42.666667-42.666667V426.666667c0-23.466667 19.2-42.666667 42.666667-42.666667s42.666667 19.2 42.666667 42.666667v226.133333c0 23.466667-19.2 42.666667-42.666667 42.666667zM750.933333 695.466667c-23.466667 0-42.666667-19.2-42.666666-42.666667v-177.066667c0-23.466667 19.2-42.666667 42.666666-42.666666s42.666667 19.2 42.666667 42.666666v177.066667c0 23.466667-19.2 42.666667-42.666667 42.666667zM590.933333 695.466667c-23.466667 0-42.666667-19.2-42.666666-42.666667V356.266667c0-23.466667 19.2-42.666667 42.666666-42.666667s42.666667 19.2 42.666667 42.666667v296.533333c0 23.466667-19.2 42.666667-42.666667 42.666667z" p-id="5755"></path></svg>