<?xml version="1.0" standalone="no"?><!DOCTYPE svg PUBLIC "-//W3C//DTD SVG 1.1//EN" "http://www.w3.org/Graphics/SVG/1.1/DTD/svg11.dtd"><svg t="1593832862409" class="icon" viewBox="0 0 1024 1024" version="1.1" xmlns="http://www.w3.org/2000/svg" p-id="9879" xmlns:xlink="http://www.w3.org/1999/xlink" width="200" height="200"><defs><style type="text/css"></style></defs><path d="M881.007793 257.754966c-33.519345 0-64.028749-13.429738-86.698307-35.239312l-63.688756 43.169157c18.819632 40.249214 29.359427 85.298334 29.359427 132.857405 0 77.018496-27.62946 147.44712-73.328568 201.576063l114.367766 157.726919c22.869553-15.84969 50.449015-25.119509 80.108436-25.119509 78.748462 0 142.84721 65.338724 142.84721 145.637155 0 80.298432-64.098748 145.637156-142.84721 145.637156S738.29058 958.651276 738.29058 878.352845c0-29.129431 8.469835-56.278901 22.979552-79.068456L645.702389 640.337493c-51.838988 42.169176-117.547704 67.398684-189.036308 67.398684-61.068807 0-117.917697-18.41964-165.516767-50.069022l-45.869105 54.338939c17.42966 23.369544 27.789457 52.508974 27.789458 84.098357 0 76.8185-61.178805 139.197281-136.527334 139.197281C61.323802 935.291733 0.005 872.912951 0.005 796.094451s61.188805-139.187281 136.537333-139.187281c23.769536 0 46.119099 6.219879 65.588719 17.129665l44.419133-52.508974c-57.448878-56.268901-93.20818-135.367356-93.20818-222.985645 0-170.766665 135.807348-309.193961 303.324076-309.193961 100.468038 0 189.506299 49.809027 244.71522 126.497529l61.348802-41.569188a130.289455 130.289455 0 0 1-8.139841-45.389113C754.590262 57.87887 811.349153 0.01 881.017793 0.01c69.64864 0 126.417531 57.86887 126.417531 128.877483-0.01 70.998613-56.648894 128.867483-126.427531 128.867483zM190.551278 736.475616c-0.749985-0.539989-1.479971-1.109978-2.179957-1.729967-0.689987-0.599988-1.329974-1.229976-1.939962-1.889963-13.649733-11.219781-30.999395-17.959649-49.889026-17.959649-43.869143 0-79.648444 36.469288-79.648444 81.198414 0 44.729126 35.779301 81.198414 79.648444 81.198414s79.638445-36.469288 79.638445-81.198414c0-23.52954-9.869807-44.769126-25.6295-59.618835zM881.007793 58.118865c-38.309252 0-69.528642 31.829378-69.528642 70.878616s31.21939 70.888615 69.528642 70.888615c38.299252 0 69.518642-31.829378 69.518642-70.888615 0-39.179235-31.079393-70.878616-69.518642-70.878616z" p-id="9880" fill="#8a8a8a"></path></svg>