<?xml version="1.0" standalone="no"?><!DOCTYPE svg PUBLIC "-//W3C//DTD SVG 1.1//EN" "http://www.w3.org/Graphics/SVG/1.1/DTD/svg11.dtd"><svg t="1593832960629" class="icon" viewBox="0 0 1024 1024" version="1.1" xmlns="http://www.w3.org/2000/svg" p-id="12127" xmlns:xlink="http://www.w3.org/1999/xlink" width="200" height="200"><defs><style type="text/css"></style></defs><path d="M605.9776 128a122.0352 122.0352 0 0 1 23.168 241.8944 185.088 185.088 0 0 1 71.1168 115.5328 122.0352 122.0352 0 1 1-3.8144 81.792 185.1904 185.1904 0 0 1-68.7872 99.9168 122.0352 122.0352 0 1 1-107.2128 35.9424l-2.4832 0.0512a184.4736 184.4736 0 0 1-123.9808-47.616 122.0352 122.0352 0 1 1-48.5888-70.4A183.4752 183.4752 0 0 1 332.8 517.9392c0-22.784 4.096-44.5696 11.6224-64.7168a122.0352 122.0352 0 1 1 50.1504-73.3184 184.32 184.32 0 0 1 121.8048-47.104 122.0352 122.0352 0 0 1 89.6-204.8z m2.4576 588.8a70.8352 70.8352 0 1 0 0 141.6704 70.8352 70.8352 0 0 0 0-141.6704z m-332.8-102.4a70.8352 70.8352 0 1 0 0 141.6704 70.8352 70.8352 0 0 0 0-141.6704z m247.296-230.4a138.9056 138.9056 0 1 0 0 277.8368 138.9056 138.9056 0 0 0 0-277.8368z m290.304 76.8a70.8352 70.8352 0 1 0 0 141.6704 70.8352 70.8352 0 0 0 0-141.6704z m-537.6-179.2a70.8352 70.8352 0 1 0 0 141.6704 70.8352 70.8352 0 0 0 0-141.6704z m330.3424-102.4a70.8352 70.8352 0 1 0 0 141.6704 70.8352 70.8352 0 0 0 0-141.6704z" p-id="12128" fill="#8a8a8a"></path></svg>