<?xml version="1.0" standalone="no"?><!DOCTYPE svg PUBLIC "-//W3C//DTD SVG 1.1//EN" "http://www.w3.org/Graphics/SVG/1.1/DTD/svg11.dtd"><svg t="1583317933514" class="icon" viewBox="0 0 1024 1024" version="1.1" xmlns="http://www.w3.org/2000/svg" p-id="5296" xmlns:xlink="http://www.w3.org/1999/xlink" width="200" height="200"><defs><style type="text/css"></style></defs><path d="M757.12 481.51466666c-112.064 0-202.944 88.064-202.944 196.608 0 108.544 90.88 196.544 202.88 196.544C869.12 874.66666666 960 786.66666666 960 678.12266666c0-108.544-90.88-196.608-202.88-196.608z m97.6 218.816h-74.624v72.32c0 7.936-4.352 15.36-11.52 19.264a23.616 23.616 0 0 1-22.912 0 22.144 22.144 0 0 1-11.52-19.2v-72.32h-74.688a23.36 23.36 0 0 1-16.256-6.528 21.888 21.888 0 0 1 0-31.424 23.36 23.36 0 0 1 16.256-6.528h74.624v-72.32c0-8 4.352-15.36 11.52-19.328a23.616 23.616 0 0 1 22.912 0c7.104 3.968 11.52 11.328 11.52 19.264v72.32h74.688a23.168 23.168 0 0 1 20.352 10.88 21.632 21.632 0 0 1 0 22.592 23.168 23.168 0 0 1-20.352 11.008zM413.44 644.84266666c32.448 0 63.872-0.704 93.632-2.048A233.28 233.28 0 0 1 586.24 498.92266666a1925.12 1925.12 0 0 1-172.736 7.296C220.48 506.21866666 64 481.13066666 64 450.15466666v138.56c0 30.976 156.48 56.128 349.44 56.128z m0-223.36c193.088 0 349.504-25.088 349.504-56.064V226.79466666c0-30.976-156.48-56.128-349.44-56.128C220.416 170.66666666 64 195.81866666 64 226.79466666v138.624c0 30.976 156.416 56.128 349.44 56.128z m92.608 277.504c-29.44 1.28-60.48 1.984-92.608 1.984-192.96 0-349.44-25.152-349.44-56.128v138.624c0 30.976 156.48 56.128 349.44 56.128 55.68 0 108.288-2.112 154.944-5.76a231.68 231.68 0 0 1-62.336-134.848z" p-id="5297" fill="#1296db"></path></svg>