<?xml version="1.0" standalone="no"?><!DOCTYPE svg PUBLIC "-//W3C//DTD SVG 1.1//EN" "http://www.w3.org/Graphics/SVG/1.1/DTD/svg11.dtd"><svg t="1596188374929" class="icon" viewBox="0 0 1024 1024" version="1.1" xmlns="http://www.w3.org/2000/svg" p-id="2884" xmlns:xlink="http://www.w3.org/1999/xlink" width="200" height="200"><defs><style type="text/css"></style></defs><path d="M602.49 154.49c-160.802 0-295.628 110.902-332.286 260.36a188.633 188.633 0 0 1-9.888-0.264c-116.927 0-211.74 94.79-211.74 211.74a210.835 210.835 0 0 1 62.017 149.635 210.769 210.769 0 0 1 149.723 61.928 211.497 211.497 0 0 1 149.79-62.281c33.215-33.216 51.864-77.687 57.227-127.08l-76.671-6.025c-17.37-2.163-22.953-15.316-12.381-29.353l129.904-160.714c10.505-14.015 24.785-12.293 31.67 3.884l73.648 179.981c6.886 16.178-1.81 27.61-19.2 25.47l-57.03-5.253c-6.466 59.633-33.303 112.27-70.822 154.004a341.357 341.357 0 0 1 136.04 28.14c188.919 0 342.085-153.166 342.085-342.086 0-188.92-153.166-342.086-342.086-342.086" p-id="2885" fill="#707070"></path></svg>