<?xml version="1.0" standalone="no"?><!DOCTYPE svg PUBLIC "-//W3C//DTD SVG 1.1//EN" "http://www.w3.org/Graphics/SVG/1.1/DTD/svg11.dtd"><svg t="1595831189160" class="icon" viewBox="0 0 1024 1024" version="1.1" xmlns="http://www.w3.org/2000/svg" p-id="3061" xmlns:xlink="http://www.w3.org/1999/xlink" width="200" height="200"><defs><style type="text/css"></style></defs><path d="M402.77333333 147.91111111v254.86222222H147.91111111V147.91111111h254.86222222m54.61333334-72.81777778H93.29777778c-10.01244445 0-18.20444445 8.192-18.20444445 18.20444445v364.08888889c0 10.01244445 8.192 18.20444445 18.20444445 18.20444444h364.08888889c10.01244445 0 18.20444445-8.192 18.20444444-18.20444444V93.29777778c0-10.01244445-8.192-18.20444445-18.20444444-18.20444445z m-54.61333334 546.13333334v254.86222222H147.91111111V621.22666667h254.86222222m54.61333334-72.81777778H93.29777778c-10.01244445 0-18.20444445 8.192-18.20444445 18.20444444v364.08888889c0 10.01244445 8.192 18.20444445 18.20444445 18.20444445h364.08888889c10.01244445 0 18.20444445-8.192 18.20444444-18.20444445V566.61333333c0-10.01244445-8.192-18.20444445-18.20444444-18.20444444z m418.70222222-400.49777778v254.86222222H621.22666667V147.91111111h254.86222222m54.61333333-72.81777778H566.61333333c-10.01244445 0-18.20444445 8.192-18.20444444 18.20444445v364.08888889c0 10.01244445 8.192 18.20444445 18.20444444 18.20444444h364.08888889c10.01244445 0 18.20444445-8.192 18.20444445-18.20444444V93.29777778c0-10.01244445-8.192-18.20444445-18.20444445-18.20444445z m-54.61333333 546.13333334v254.86222222H621.22666667V621.22666667h254.86222222m54.61333333-72.81777778H566.61333333c-10.01244445 0-18.20444445 8.192-18.20444444 18.20444444v364.08888889c0 10.01244445 8.192 18.20444445 18.20444444 18.20444445h364.08888889c10.01244445 0 18.20444445-8.192 18.20444445-18.20444445V566.61333333c0-10.01244445-8.192-18.20444445-18.20444445-18.20444444z" p-id="3062" fill="#707070"></path></svg>