<?xml version="1.0" standalone="no"?><!DOCTYPE svg PUBLIC "-//W3C//DTD SVG 1.1//EN" "http://www.w3.org/Graphics/SVG/1.1/DTD/svg11.dtd"><svg t="1582869999624" class="icon" viewBox="0 0 1280 1024" version="1.1" xmlns="http://www.w3.org/2000/svg" p-id="4356" xmlns:xlink="http://www.w3.org/1999/xlink" width="250" height="200"><defs><style type="text/css"></style></defs><path d="M1152 640 128 640C57.28 640 0 582.72 0 512 0 441.28 57.28 384 128 384L1152 384C1222.72 384 1280 441.28 1280 512 1280 582.72 1222.72 640 1152 640ZM1024 448C988.672 448 960 476.672 960 512 960 547.328 988.672 576 1024 576 1059.328 576 1088 547.328 1088 512 1088 476.672 1059.328 448 1024 448ZM1152 256 128 256C57.28 256 0 198.72 0 128 0 57.28 57.28 0 128 0L1152 0C1222.72 0 1280 57.28 1280 128 1280 198.72 1222.72 256 1152 256ZM1024 64C988.672 64 960 92.672 960 128 960 163.328 988.672 192 1024 192 1059.328 192 1088 163.328 1088 128 1088 92.672 1059.328 64 1024 64ZM128 768 1152 768C1222.72 768 1280 825.28 1280 896 1280 966.72 1222.72 1024 1152 1024L128 1024C57.28 1024 0 966.72 0 896 0 825.28 57.28 768 128 768ZM1024 960C1059.328 960 1088 931.328 1088 896 1088 860.672 1059.328 832 1024 832 988.672 832 960 860.672 960 896 960 931.328 988.672 960 1024 960Z" p-id="4357"></path></svg>