<?xml version="1.0" standalone="no"?><!DOCTYPE svg PUBLIC "-//W3C//DTD SVG 1.1//EN" "http://www.w3.org/Graphics/SVG/1.1/DTD/svg11.dtd"><svg t="1582870414613" class="icon" viewBox="0 0 1332 1024" version="1.1" xmlns="http://www.w3.org/2000/svg" p-id="11773" xmlns:xlink="http://www.w3.org/1999/xlink" width="260.15625" height="200"><defs><style type="text/css"></style></defs><path d="M1266.341717 830.812741 64.924846 830.812741c-35.841792 0-64.924846-29.185459-64.924846-65.180859L0 65.180859C0 29.185459 29.031852 0 64.924846 0l1201.468073 0C1302.234712 0 1331.266563 29.185459 1331.266563 65.180859l0 700.39982C1331.266563 801.576079 1302.234712 830.812741 1266.341717 830.812741zM1251.288164 80.644032 79.773589 80.644032l0 674.081704 1171.565778 0L1251.339367 80.644032zM422.830742 974.79434c119.865193 0 109.522276-117.40747 109.522276-117.40747l109.471074 0.307215 0-0.20481 155.041352-0.614431c0 0-9.626081 117.817091 101.381069 117.817091 35.176159 0 39.221161 49.308065 0.665633 49.308065-25.754888 0-131.59058 0-199.177959 0-33.537677 0-57.858893 0-57.858893 0-72.656433 0-191.343967 0-219.812591 0C380.435022 1024 384.787239 974.79434 422.830742 974.79434z" p-id="11774"></path></svg>