<?xml version="1.0" standalone="no"?><!DOCTYPE svg PUBLIC "-//W3C//DTD SVG 1.1//EN" "http://www.w3.org/Graphics/SVG/1.1/DTD/svg11.dtd"><svg t="1582870147328" class="icon" viewBox="0 0 1024 1024" version="1.1" xmlns="http://www.w3.org/2000/svg" p-id="4477" xmlns:xlink="http://www.w3.org/1999/xlink" width="200" height="200"><defs><style type="text/css"></style></defs><path d="M631.466667 883.2h-115.2v-128h25.6c-12.8-25.6-21.333333-42.666667-25.6-64H98.133333c-17.066667 0-38.4 0-38.4-21.333333V640H512v-21.333333c0-12.8 0-17.066667 8.533333-42.666667H64V174.933333c0-8.533333 8.533333-12.8 12.8-21.333333s17.066667-4.266667 25.6-4.266667h704c4.266667 0 17.066667 4.266667 17.066667 34.133334v192c21.333333 4.266667 46.933333 12.8 64 17.066666V174.933333c0-38.4-34.133333-98.133333-76.8-98.133333H102.4c-25.6 0-51.2 12.8-72.533333 34.133333S0 149.333333 0 174.933333v490.666667c0 51.2 25.6 81.066667 102.4 81.066667h243.2v128H277.333333c-8.533333 0-12.8 8.533333-21.333333 12.8-4.266667 8.533333-4.266667 12.8-4.266667 21.333333s0 21.333333 4.266667 25.6 12.8 12.8 21.333333 12.8h358.4c8.533333 0 12.8-4.266667 17.066667-12.8 8.533333-8.533333 8.533333-12.8 8.533333-21.333333s0-21.333333-8.533333-25.6c-8.533333 0-12.8-4.266667-21.333333-4.266667z m-153.6 0H413.866667v-128h64v128z" fill="#262626" p-id="4478"></path><path d="M985.6 669.866667c12.8-51.2 0-81.066667 0-81.066667l-46.933333-4.266667c-4.266667-17.066667-12.8-25.6-17.066667-42.666666l29.866667-34.133334c-25.6-42.666667-55.466667-55.466667-55.466667-55.466666l-34.133333 29.866666c-12.8-8.533333-25.6-12.8-42.666667-17.066666l-4.266667-46.933334c-51.2-12.8-81.066667 0-81.066666 0l-4.266667 46.933334c-17.066667 4.266667-25.6 8.533333-42.666667 17.066666l-29.866666-25.6s-29.866667 12.8-55.466667 55.466667c8.533333 8.533333 21.333333 17.066667 25.6 34.133333 0 4.266667-17.066667 42.666667-17.066667 42.666667l-42.666666 4.266667s-17.066667 29.866667 0 81.066666l42.666666 4.266667c4.266667 17.066667 12.8 29.866667 17.066667 46.933333l-29.866667 29.866667s12.8 29.866667 55.466667 55.466667l29.866667-25.6c17.066667 8.533333 29.866667 17.066667 46.933333 17.066666l4.266667 42.666667s29.866667 12.8 81.066666 0l4.266667-42.666667c17.066667-4.266667 29.866667-12.8 46.933333-17.066666l34.133334 29.866666c42.666667-25.6 55.466667-55.466667 55.466666-55.466666l-29.866666-34.133334c8.533333-12.8 12.8-25.6 17.066666-42.666666-4.266667-8.533333 42.666667-12.8 42.666667-12.8z m-209.066667 68.266666c-59.733333 0-106.666667-51.2-106.666666-106.666666 0-59.733333 51.2-106.666667 106.666666-106.666667 59.733333 0 106.666667 51.2 106.666667 106.666667s-46.933333 106.666667-106.666667 106.666666z" fill="#409EFF" p-id="4479"></path></svg>