<?xml version="1.0" standalone="no"?><!DOCTYPE svg PUBLIC "-//W3C//DTD SVG 1.1//EN" "http://www.w3.org/Graphics/SVG/1.1/DTD/svg11.dtd"><svg t="1595831080931" class="icon" viewBox="0 0 1024 1024" version="1.1" xmlns="http://www.w3.org/2000/svg" p-id="2258" xmlns:xlink="http://www.w3.org/1999/xlink" width="200" height="200"><defs><style type="text/css"></style></defs><path d="M128 64h152a64 64 0 0 1 64 64v768a64 64 0 0 1-64 64H128a64 64 0 0 1-64-64V128a64 64 0 0 1 64-64z m392 0H896a64 64 0 0 1 64 64v96a64 64 0 0 1-64 64H520a64 64 0 0 1-64-64V128a64 64 0 0 1 64-64z m0 336H896a64 64 0 0 1 64 64V896a64 64 0 0 1-64 64H520a64 64 0 0 1-64-64V464a64 64 0 0 1 64-64z" p-id="2259" fill="#707070"></path></svg>