<?xml version="1.0" standalone="no"?><!DOCTYPE svg PUBLIC "-//W3C//DTD SVG 1.1//EN" "http://www.w3.org/Graphics/SVG/1.1/DTD/svg11.dtd"><svg t="1592793095668" class="icon" viewBox="0 0 1024 1024" version="1.1" xmlns="http://www.w3.org/2000/svg" p-id="3663" xmlns:xlink="http://www.w3.org/1999/xlink" width="200" height="200"><defs><style type="text/css"></style></defs><path d="M209.984 320l302.08-172.544L813.952 320 512 492.544 209.984 320z m302.08-320L64 256v512l193.664 110.72a253.952 253.952 0 0 1 41.088-123.968L192 693.696V457.152L512 640l320-182.848v236.544l-218.624 124.992A127.296 127.296 0 0 0 512 768a128 128 0 0 0 0 256c46.72 0 87.104-25.28 109.44-62.592L960 768V256L512 0z" fill="#707070" p-id="3664"></path></svg>