<?xml version="1.0" standalone="no"?><!DOCTYPE svg PUBLIC "-//W3C//DTD SVG 1.1//EN" "http://www.w3.org/Graphics/SVG/1.1/DTD/svg11.dtd"><svg t="1561687942476" class="icon" viewBox="0 0 1024 1024" version="1.1" xmlns="http://www.w3.org/2000/svg" p-id="2727" xmlns:xlink="http://www.w3.org/1999/xlink" width="200" height="200"><defs><style type="text/css"></style></defs><path d="M512 1002.666667c270.997333 0 490.666667-219.669333 490.666667-490.666667S782.997333 21.333333 512 21.333333 21.333333 241.002667 21.333333 512s219.669333 490.666667 490.666667 490.666667z m0 21.333333C229.226667 1024 0 794.773333 0 512S229.226667 0 512 0s512 229.226667 512 512-229.226667 512-512 512z" fill="#1296db" p-id="2728"></path><path d="M733.034667 666.56c-20.096 1.856-23.530667-27.093333-37.013334-35.690667-5.674667 28.16-19.306667 48.256-38.464 63.061334 17.962667 13.76 51.029333 18.24 49.301334 48-1.834667 36.224-67.690667 45.866667-115.285334 42.56-34.901333-2.517333-55.658667-15.189333-75.498666-28.8-10.965333 3.946667-22.464 14.4-34.218667 19.285333-48.661333 20.096-154.837333 12.032-159.061333-31.466667-2.901333-30.933333 32-36.352 50.773333-49.322666-19.434667-13.994667-34.133333-32.512-38.485333-61.738667-14.144 3.84-17.301333 34.922667-37.013334 34.24-20.906667-0.64-24.064-44.010667-21.952-71.253333 3.2-41.92 33.578667-74.432 49.322667-96-0.789333-23.658667 0.789333-45.077333 10.965333-57.493334 0.405333-61.077333 21.546667-97.045333 52.096-127.573333 30.933333-30.933333 77.866667-54.357333 124.8-54.741333 56.064-0.661333 100.096 26.709333 127.573334 53.546666 24.618667 24.064 40.597333 49.706667 48 87.786667 2.389333 11.370667 0.810667 25.386667 3.989333 39.786667 1.322667 5.952 7.658667 12.288 9.514667 20.48 2.496 10.581333-1.322667 23.68 1.322666 35.712 1.834667 9.130667 10.304 15.872 15.061334 21.952 13.482667 17.322667 31.466667 45.866667 34.24 72.704 3.712 29.482667-0.64 73.386667-19.968 74.965333" fill="#1296db" p-id="2729"></path></svg>