<?xml version="1.0" standalone="no"?><!DOCTYPE svg PUBLIC "-//W3C//DTD SVG 1.1//EN" "http://www.w3.org/Graphics/SVG/1.1/DTD/svg11.dtd"><svg t="1582870496638" class="icon" viewBox="0 0 1024 1024" version="1.1" xmlns="http://www.w3.org/2000/svg" p-id="12523" xmlns:xlink="http://www.w3.org/1999/xlink" width="200" height="200"><defs><style type="text/css"></style></defs><path d="M819.2 755.2c-6.4-25.6-25.6-38.4-51.2-51.2-38.4-32-83.2-51.2-128-70.4-38.4-12.8-70.4-32-108.8-51.2-25.6-12.8-32-44.8-19.2-70.4l6.4-6.4c12.8-12.8 25.6-19.2 32-32C620.8 390.4 640 294.4 614.4 192c-12.8-44.8-44.8-89.6-89.6-115.2C486.4 51.2 448 44.8 409.6 51.2c-70.4 0-128 38.4-160 102.4-32 44.8-38.4 102.4-32 153.6 12.8 83.2 44.8 147.2 108.8 198.4 19.2 12.8 19.2 44.8 0 64-6.4 12.8-19.2 19.2-32 25.6-32 12.8-64 32-96 44.8-44.8 19.2-89.6 38.4-128 70.4-19.2 12.8-38.4 32-44.8 57.6-6.4 19.2-12.8 38.4-19.2 64-6.4 25.6 0 44.8 25.6 64 12.8 6.4 19.2 12.8 32 19.2 38.4 12.8 76.8 19.2 121.6 25.6 83.2 6.4 166.4 12.8 243.2 12.8 57.6 0 121.6-6.4 179.2-6.4 51.2 0 102.4-6.4 153.6-19.2 25.6-6.4 44.8-12.8 64-25.6 19.2-12.8 32-32 19.2-57.6-6.4-38.4-19.2-64-25.6-89.6z m0 0" p-id="12524"></path><path d="M960 665.6c-25.6-19.2-57.6-32-83.2-44.8-25.6-12.8-57.6-25.6-89.6-44.8-6.4-6.4-12.8-12.8-12.8-19.2-6.4-19.2 0-32 12.8-44.8 64-57.6 89.6-134.4 76.8-224 0-32-19.2-70.4-44.8-96-38.4-44.8-96-51.2-147.2-38.4-12.8 0-25.6 6.4-32 6.4v6.4c12.8 38.4 19.2 76.8 19.2 108.8 6.4 83.2-19.2 160-89.6 217.6-19.2 19.2-25.6 44.8-6.4 64l32 32c19.2 12.8 44.8 19.2 64 25.6 51.2 19.2 102.4 44.8 140.8 83.2 32 25.6 51.2 57.6 57.6 96 6.4 19.2 6.4 38.4 12.8 64 38.4-12.8 83.2-19.2 121.6-32 19.2-6.4 25.6-12.8 25.6-32 12.8-57.6-6.4-96-57.6-128z m0 0" p-id="12525"></path></svg>