<?xml version="1.0" standalone="no"?><!DOCTYPE svg PUBLIC "-//W3C//DTD SVG 1.1//EN" "http://www.w3.org/Graphics/SVG/1.1/DTD/svg11.dtd"><svg t="1593842110702" class="icon" viewBox="0 0 1128 1024" version="1.1" xmlns="http://www.w3.org/2000/svg" p-id="19646" xmlns:xlink="http://www.w3.org/1999/xlink" width="220.3125" height="200"><defs><style type="text/css"></style></defs><path d="M1095.68 351.573333H30.72c-17.066667 0-30.72 13.653333-30.72 32.426667v576.853333c0 34.133333 27.306667 63.146667 63.146667 63.146667h1001.813333c34.133333 0 63.146667-29.013333 63.146667-63.146667V384c0-8.533333-3.413333-17.066667-8.533334-22.186667-8.533333-6.826667-15.36-10.24-23.893333-10.24zM380.586667 679.253333L225.28 836.266667c-11.946667 11.946667-32.426667 11.946667-44.373333 0-11.946667-11.946667-11.946667-32.426667 0-46.08l131.413333-136.533334-131.413333-136.533333c-11.946667-11.946667-11.946667-32.426667 0-46.08 11.946667-11.946667 32.426667-11.946667 44.373333 0l155.306667 158.72c5.12 6.826667 8.533333 13.653333 8.533333 22.186667s-3.413333 20.48-8.533333 27.306666z m307.2 184.32h-187.733334c-17.066667 0-30.72-13.653333-30.72-32.426666 0-17.066667 13.653333-32.426667 30.72-32.426667h187.733334c17.066667 0 30.72 13.653333 30.72 32.426667 1.706667 18.773333-13.653333 32.426667-30.72 32.426666zM1063.253333 0H63.146667C27.306667 0 0 29.013333 0 64.853333V256c0 17.066667 13.653333 32.426667 30.72 32.426667h1063.253333c8.533333 0 17.066667-3.413333 22.186667-8.533334 6.826667-6.826667 10.24-15.36 10.24-23.893333V64.853333C1126.4 29.013333 1099.093333 0 1063.253333 0zM172.373333 192.853333c-25.6 0-46.08-22.186667-46.08-47.786666 0-27.306667 20.48-47.786667 46.08-47.786667 25.6 0 47.786667 22.186667 47.786667 47.786667-1.706667 25.6-22.186667 47.786667-47.786667 47.786666z m124.586667 0c-25.6 0-46.08-22.186667-46.08-47.786666 0-27.306667 20.48-47.786667 46.08-47.786667 25.6 0 47.786667 22.186667 47.786667 47.786667 0 25.6-22.186667 47.786667-47.786667 47.786666z m124.586667 0c-25.6 0-46.08-22.186667-46.08-47.786666 0-27.306667 20.48-47.786667 46.08-47.786667 25.6 0 47.786667 22.186667 47.786666 47.786667 0 25.6-20.48 47.786667-47.786666 47.786666z m0 0" p-id="19647" fill="#707070"></path></svg>